<svg xmlns="http://www.w3.org/2000/svg" width="512" height="512" viewport="0 0 512 512"><g><path d="M296.825 134.091c0 47.537-18.354 86.073-40.996 86.073-22.641 0-40.996-38.536-40.996-86.073 0-47.537 18.354-86.073 40.996-86.073 22.641 0 40.996 38.536 40.996 86.073z" fill="#fff"/><path d="M382.665 134.091c0 38.698-11.118 70.069-24.832 70.069s-24.832-31.371-24.832-70.069c0-38.698 11.118-70.069 24.832-70.069s24.832 31.371 24.832 70.069z" fill="#fff"/><path d="M181.482 133.929c0 38.608-11.118 69.907-24.832 69.907s-24.832-31.298-24.832-69.907c0-38.608 11.118-69.907 24.832-69.907s24.832 31.298 24.832 69.907z" fill="#fff"/><path d="M256 304s-32 112-144 112h-80s80-144 48-208c0 0 144-32 176-128 32 96 176 128 176 128-32 64 48 208 48 208h-96c-80 0-128-112-128-112z" stroke="#000"/><path fill="#fff" d="M144 240h32v48h-32z"/><path fill="#fff" d="M336 240h32v48h-32z"/></g></svg>